<svg id="图层_1" data-name="图层 1" xmlns="http://www.w3.org/2000/svg" xmlns:xlink="http://www.w3.org/1999/xlink" viewBox="0 0 600 600"><defs><style>.cls-1,.cls-3{fill:#fff;}.cls-1,.cls-2,.cls-6{stroke:#b62725;}.cls-1,.cls-10,.cls-2,.cls-27,.cls-6{stroke-miterlimit:10;}.cls-1,.cls-10,.cls-2,.cls-6{stroke-width:5px;}.cls-15,.cls-2{fill:#fffefa;}.cls-4{clip-path:url(#clip-path);}.cls-5{fill:#ffd364;}.cls-27,.cls-6{fill:none;}.cls-7{fill:#cb2525;}.cls-8{clip-path:url(#clip-path-2);}.cls-9{fill:#ffd664;}.cls-10{fill:#d93729;stroke:#fff;}.cls-11{fill:#040000;}.cls-12{fill:#090909;}.cls-13{clip-path:url(#clip-path-3);}.cls-14{fill:#b62725;}.cls-16{clip-path:url(#clip-path-4);}.cls-17{fill:url(#未命名的渐变_8);}.cls-18{fill:url(#未命名的渐变_8-2);}.cls-19{fill:url(#未命名的渐变_8-3);}.cls-20{fill:url(#未命名的渐变_8-4);}.cls-21{fill:url(#未命名的渐变_8-5);}.cls-22{fill:url(#未命名的渐变_8-6);}.cls-23{fill:url(#未命名的渐变_8-7);}.cls-24{fill:url(#未命名的渐变_8-8);}.cls-25{fill:url(#未命名的渐变_8-9);}.cls-26{fill:url(#未命名的渐变_8-10);}.cls-27{stroke:#ffd283;stroke-width:2px;}</style><clipPath id="clip-path"><path class="cls-1" d="M263.86,215.72c12-3.66,252.19-135.67,277.55,93.13,6.2,121.73-115.53,210.2-267.69,143.71C196,439,180.18,439,165.52,444.67s-78.33,30.43-53.53-80S263.86,215.72,263.86,215.72Z"/></clipPath><clipPath id="clip-path-2"><ellipse class="cls-1" cx="200.71" cy="285.88" rx="143.97" ry="121.68" transform="translate(-147.97 306.61) rotate(-58.33)"/></clipPath><clipPath id="clip-path-3"><ellipse class="cls-1" cx="139.47" cy="422.72" rx="32.09" ry="44.48" transform="translate(-305.49 434.95) rotate(-73.32)"/></clipPath><clipPath id="clip-path-4"><ellipse class="cls-2" cx="370.22" cy="151.31" rx="43.57" ry="27.34" transform="translate(-13.38 38.15) rotate(-5.79)"/></clipPath><linearGradient id="未命名的渐变_8" x1="373.08" y1="227.89" x2="396.16" y2="399.72" gradientTransform="matrix(1, -0.05, 0.05, 1, -7.06, -26)" gradientUnits="userSpaceOnUse"><stop offset="0" stop-color="#ffde3e"/><stop offset="1" stop-color="#ff9d3b"/></linearGradient><linearGradient id="未命名的渐变_8-2" x1="325.38" y1="221.43" x2="348.96" y2="396.98" gradientTransform="matrix(1.07, -0.03, 0.04, 1.08, 27.42, -32.92)" xlink:href="#未命名的渐变_8"/><linearGradient id="未命名的渐变_8-3" x1="375.83" y1="187.5" x2="401.48" y2="378.42" gradientTransform="translate(6.76 9.5) rotate(1.11)" xlink:href="#未命名的渐变_8"/><linearGradient id="未命名的渐变_8-4" x1="399.15" y1="238.92" x2="425.6" y2="435.84" gradientTransform="matrix(0.97, -0.05, 0.04, 0.95, -23.3, -15.11)" xlink:href="#未命名的渐变_8"/><linearGradient id="未命名的渐变_8-5" x1="369.22" y1="199.4" x2="392.31" y2="371.22" gradientTransform="translate(6.76 9.5) rotate(1.11)" xlink:href="#未命名的渐变_8"/><linearGradient id="未命名的渐变_8-6" x1="373.55" y1="198.6" x2="396.63" y2="370.43" gradientTransform="translate(6.76 9.5) rotate(1.11)" xlink:href="#未命名的渐变_8"/><linearGradient id="未命名的渐变_8-7" x1="389.26" y1="194.79" x2="412.34" y2="366.62" gradientTransform="matrix(1, 0, 0, 1, 0, 0)" xlink:href="#未命名的渐变_8"/><linearGradient id="未命名的渐变_8-8" x1="366.15" y1="261.08" x2="382.94" y2="386.09" gradientTransform="translate(4.63 -43.48)" xlink:href="#未命名的渐变_8"/><linearGradient id="未命名的渐变_8-9" x1="504.39" y1="360.51" x2="507.28" y2="382.01" gradientTransform="matrix(0.9, 0, 0, 0.85, -53.81, 51.13)" xlink:href="#未命名的渐变_8"/><linearGradient id="未命名的渐变_8-10" x1="398.59" y1="327.99" x2="401.59" y2="350.27" gradientTransform="translate(17.76 27.44) rotate(3.08)" xlink:href="#未命名的渐变_8"/></defs><title>未标题-1</title><path class="cls-1" d="M435.16,464.78c3.23,1.68,126.78,9.54,138.38-31.12s-85.66-72.26-85.66-72.26Z"/><path class="cls-1" d="M400.61,200.34c1.1-3.3,80.3-90.75,115-70.4s-11,106.7-11,106.7Z"/><path class="cls-3" d="M263.86,215.72c12-3.66,252.19-135.67,277.55,93.13,6.2,121.73-115.53,210.2-267.69,143.71C196,439,180.18,439,165.52,444.67s-78.33,30.43-53.53-80S263.86,215.72,263.86,215.72Z"/><g class="cls-4"><path class="cls-5" d="M587.17,269.26c-11.55-6.95-23.54-5.78-36.08-3.41a269.88,269.88,0,0,0-30.23,7.44c-21.51,6.69-42.9,16-61.18,29.32-19.12,13.94-35.9,30.37-47.94,50.95-12.69,21.69-18.65,45.41-21.81,70.06-2.9,22.6-2.2,45.38-.6,68.06.63,8.85,3.27,17,9.7,23.41,5.74,5.75,15.17,10.07,23.42,9.7a40.48,40.48,0,0,0,12.47-2.48,33.29,33.29,0,0,0,45.35-1.07c12.37-11.88,18.78-27.82,23-44.1l1.33-1.91q7.52-10.77,15.47-21.22a644,644,0,0,1,59.09-65.65,34,34,0,0,0,9.7-23.42,32.49,32.49,0,0,0-.63-6.18c.78-.65,1.54-1.32,2.28-2.05a24.85,24.85,0,0,0,6.85-10.66,31.76,31.76,0,0,0,.9-23,37,37,0,0,0,6-11.26C609.46,295.76,601.23,277.71,587.17,269.26Z"/></g><path class="cls-6" d="M263.86,215.72c12-3.66,252.19-135.67,277.55,93.13,6.2,121.73-115.53,210.2-267.69,143.71C196,439,180.18,439,165.52,444.67s-78.33,30.43-53.53-80S263.86,215.72,263.86,215.72Z"/><path class="cls-1" d="M132.57,195.88c.37-2.57-10.63-53.17,22.37-74.8,18-8.07,43.27,7,59.77,34.46S132.57,195.88,132.57,195.88Z"/><path class="cls-7" d="M143.09,180.66c-.49-1.62,2.08-41.89,13.89-49.25s47,21.44,46.18,28.75S143.09,180.66,143.09,180.66Z"/><path class="cls-1" d="M89.76,359.92c-2.38-1.09-54.51-4.84-66-43-2.68-19.72,19.1-40,50.44-48.15S89.76,359.92,89.76,359.92Z"/><path class="cls-7" d="M78.25,345.6c-1.71-.07-39.42-15.59-42.67-29.18s35.63-37.63,42.36-34.48S78.25,345.6,78.25,345.6Z"/><ellipse class="cls-3" cx="200.71" cy="285.88" rx="143.97" ry="121.68" transform="translate(-147.97 306.61) rotate(-58.33)"/><g class="cls-8"><path class="cls-9" d="M323.16,155.85a45.29,45.29,0,0,0-9.4-26.55c-5.6-7.24-13.59-13.61-22.77-15.7-11.31-2.58-23.67-1.9-33.76,4.41a128.55,128.55,0,0,1-13,7.1,172.94,172.94,0,0,1-31.48,8.37c-13.55,1.35-27.18,1.35-40.8,1.45-7.52.06-15.12.37-22.62-.28a102.11,102.11,0,0,0-11.6.16,78.5,78.5,0,0,0-12.8,1.86,31.16,31.16,0,0,0-14,4.23,31.72,31.72,0,0,0-7.24,5.84A19.29,19.29,0,0,0,91,152.45a20.65,20.65,0,0,0-5.43,19.26c-.06,6,2.67,11.37,5.11,16.83a65.68,65.68,0,0,0,4.48,8.81c4.75,7.36,11.72,14.24,18.46,19.86,18,15.09,39.42,22.61,62.65,25,16,1.62,32.33-.21,48-3.41a145.46,145.46,0,0,0,45-17.49c15.24-9.08,29.76-20.74,41.12-34.43C317.6,178.08,323.7,167.81,323.16,155.85Z"/></g><ellipse class="cls-6" cx="200.71" cy="285.88" rx="143.97" ry="121.68" transform="translate(-147.97 306.61) rotate(-58.33)"/><path class="cls-10" d="M342.1,270.47c4.49,69.39,4.32,108.38,4.12,150.19a245.87,245.87,0,0,0,89.41,1.16,5.94,5.94,0,0,0,3.22-1.25,5.78,5.78,0,0,0,1.32-3.71c1.22-12.11.19-96.36-4.25-142.51-2.64-27.39-6-76.48-11.2-103.5-.86-4.45-2.1-14.13-6.78-15.26-1.79-.43-23.37.27-39,2.38-9.54,1.29-40.56,4.84-45.7,9.73C327.75,173,338.64,217.11,342.1,270.47Z"/><path class="cls-11" d="M95.9,350.23c-.35.77,1.72-50.31,54.11-50.59,6.87,1.69,4.29,7.87-1.44,9.27S114.8,308.91,95.9,350.23Z"/><path class="cls-11" d="M207.56,183.51c.67-.71-52.93,26.81-30.75,74.73,4.74,5.42,10.23,0,9.28-6S171.59,221.47,207.56,183.51Z"/><path class="cls-11" d="M192.21,300.3s-6.27,6.41-11.83,5.14-3.1-9.09-.81-12.57,9.33-9.71,11.81-5.47S194,297.43,192.21,300.3Z"/><path class="cls-12" d="M229.56,260.87c-.11-.56-1-.53-.92.06a28.84,28.84,0,0,1-.06,6.5,35.7,35.7,0,0,1-1.11,6.33,31.68,31.68,0,0,1-5.59,11.36A32.52,32.52,0,0,1,201,297a34.54,34.54,0,0,1-3.52.28,25.63,25.63,0,0,1-3.12-.08,20.14,20.14,0,0,1-2.55-.39,12.66,12.66,0,0,0-2.47-1.55,3.39,3.39,0,0,0-1.57-.3,2.63,2.63,0,0,0-3.22,3.85c0,.06.1.11.14.17a3.6,3.6,0,0,0,1.69,2.19l.63.39.27.18.34.26.45.38c.23.2.44.42.65.63l.18.18h0l0,0c.19.23.37.46.54.7a13.26,13.26,0,0,1,.73,1.11c.1.17.19.35.3.52l0,.05.05.11a17.86,17.86,0,0,1,.92,2.57c.06.19.1.39.15.59s.06.28.06.3c.08.54.15,1.07.2,1.61a32.82,32.82,0,0,1,.1,3.43s0,.28,0,.35l-.06.61c0,.54-.12,1.08-.2,1.62-.15,1-.35,2-.58,3a32.14,32.14,0,0,1-4.17,9.89,29,29,0,0,1-7.25,7.9,39,39,0,0,1-5.36,3.34,25.17,25.17,0,0,1-2.88,1.23,19.6,19.6,0,0,1-3.19,1.07,1,1,0,0,0,.13,2.06c1.06,0,2.14,0,3.19-.08a21,21,0,0,0,3.26-.61,27,27,0,0,0,6.21-2.39,30.92,30.92,0,0,0,9.86-8.52A38,38,0,0,0,196.85,322a29.33,29.33,0,0,0,1.08-14.8,19.29,19.29,0,0,0-1.63-4.66c.9,0,1.8-.07,2.69-.16A35.46,35.46,0,0,0,212.84,298a34.88,34.88,0,0,0,16.59-21.63,34,34,0,0,0,1.09-7.57A36.5,36.5,0,0,0,229.56,260.87Z"/><path class="cls-12" d="M188.67,303l.18.18h0Z"/><path class="cls-12" d="M240.36,169.13c-1.75,6.31-3.64,12.54-5.86,18.71s-4.22,12.39-6.27,18.6l-1.67,5.12c-.27.82-.51,1.68-.82,2.48a9.33,9.33,0,0,0-.58,1.52,3.41,3.41,0,0,0,.37,2.23,2.33,2.33,0,0,0,3.18.83c1.71-1.09,1.78-3.23,2.29-5,.43-1.54.86-3.08,1.28-4.63.85-3.15,1.7-6.31,2.45-9.49,1.5-6.37,2.83-12.77,4.25-19.15.8-3.63,1.78-7.22,2.67-10.83A.67.67,0,0,0,240.36,169.13Z"/><path class="cls-12" d="M259.06,179.12q-5.88,10-11.95,20c-2,3.3-4,6.65-6,10q-1.49,2.51-2.95,5l-1.38,2.34a10.27,10.27,0,0,0-1.63,2.85,2.25,2.25,0,0,0,3.73,2.17,9.67,9.67,0,0,0,1.58-2.87l1.27-2.41,2.7-5.15c1.81-3.44,3.61-6.87,5.36-10.34q5.22-10.41,10.67-20.7A.84.84,0,0,0,259.06,179.12Z"/><path class="cls-12" d="M276.41,194.86c-2.61,2.51-5.38,4.84-8.07,7.26s-5.18,4.67-7.77,7-5.12,4.73-7.67,7.11-5.44,4.82-7.9,7.43a2.33,2.33,0,0,0,3.29,3.3c2.65-2.44,5-5.22,7.51-7.83s4.82-5,7.18-7.6l7.08-7.71c2.44-2.67,4.79-5.41,7.32-8A.69.69,0,0,0,276.41,194.86Z"/><path class="cls-12" d="M136.8,365.59a2.42,2.42,0,0,0-3.11-.62c-1.53.84-2.83,2.39-4.18,3.5s-2.62,2-4,3c-2.73,2-5.48,3.88-8.31,5.7-5.74,3.71-11.67,7.16-17.73,10.33-.78.41-.09,1.53.69,1.17,6.31-2.87,12.74-5.48,18.94-8.61a93.77,93.77,0,0,0,8.91-5q2.1-1.37,4.13-2.84c.67-.49,1.35-1,2-1.47a12.58,12.58,0,0,0,2.42-2A2.44,2.44,0,0,0,136.8,365.59Z"/><path class="cls-12" d="M141.91,373.73a2.47,2.47,0,0,0-3.35.88,54.06,54.06,0,0,1-11.06,16.11,92.87,92.87,0,0,1-7.46,6.84c-2.68,2.24-5.27,4.56-8.1,6.63-.52.38,0,1.25.53.89,3-1.86,6.11-3.42,9-5.34a75.88,75.88,0,0,0,8.57-6.45,61.37,61.37,0,0,0,12.72-16.2A2.51,2.51,0,0,0,141.91,373.73Z"/><path class="cls-12" d="M151,378.92A132.6,132.6,0,0,1,143.66,397c-1.45,2.93-3.11,5.73-4.68,8.59a82.75,82.75,0,0,1-5,8.55c-.55.77.7,1.74,1.31,1,2.21-2.63,4.56-5.11,6.64-7.85a76,76,0,0,0,5.32-8.42,103.69,103.69,0,0,0,8.27-18.7C156.47,377.3,151.91,376.05,151,378.92Z"/><ellipse class="cls-3" cx="139.47" cy="422.72" rx="32.09" ry="44.48" transform="translate(-305.49 434.95) rotate(-73.32)"/><g class="cls-13"><path class="cls-14" d="M156.64,373.24c-5.45-1.33-11.09,2.26-15.77,4.63a58.44,58.44,0,0,0-14,9.54c-7.5,7.18-12.23,16.36-11.89,26.59a1.46,1.46,0,0,0,2.9,0c.6-9.75,7.5-17.91,15.55-23.53a83.27,83.27,0,0,1,12.46-6.87c4.29-2,9.54-3.09,12.07-7.19A2.15,2.15,0,0,0,156.64,373.24Z"/><path class="cls-14" d="M176.15,383c-9.48-4-22.6,2.59-30,8-8.34,6.15-16.28,15.37-14.15,26,.31,1.58,3.17,1.24,3-.39-.93-9.15,8.58-17.24,16-21.79a45.62,45.62,0,0,1,11.71-5.1c4.18-1.14,8.67-.79,12.75-2.09C177.48,387.05,178.42,384,176.15,383Z"/><path class="cls-14" d="M164.8,397.47c-8.14,4.11-19.69,13.44-16.75,23.26.41,1.36,2.38.75,2.18-.57-.7-4.72,4.49-8.6,7.9-11.25a46.7,46.7,0,0,1,10.1-5.9,43.88,43.88,0,0,1,10.63-3.11,28.32,28.32,0,0,1,5.95-.45,16.49,16.49,0,0,0,4.15.12,2,2,0,0,0,1.47-1.39C192.46,387.4,169,395.35,164.8,397.47Z"/></g><ellipse class="cls-6" cx="139.47" cy="422.72" rx="32.09" ry="44.48" transform="translate(-305.49 434.95) rotate(-73.32)"/><rect class="cls-10" x="314.43" y="151.92" width="117.6" height="28.37" rx="14.19" transform="translate(-17.26 46.07) rotate(-6.9)"/><ellipse class="cls-15" cx="370.22" cy="151.31" rx="43.57" ry="27.34" transform="translate(-13.38 38.15) rotate(-5.79)"/><g class="cls-16"><path class="cls-14" d="M360.79,195c-.4-3.19-2-5.94-3.14-8.94a59.52,59.52,0,0,1-2.48-8.57c-1.31-6.38-1.72-13.81-.18-20.16a1.74,1.74,0,0,0-3.36-.92c-2.45,7.34-3.84,14.17-2.85,21.94.81,6.3,2.7,14.93,8.18,18.85C358.43,198.29,361,196.9,360.79,195Z"/><path class="cls-14" d="M380.73,174.53c-2.12-5.42-4.53-11.52-5.32-17.3-.33-2.46-4.31-1.83-4.27.58.11,6.78-.08,13,1.71,19.62,1.49,5.56,3.18,13.24,9.1,15.48a3.29,3.29,0,0,0,4-2.29C387.15,185,382.7,179.58,380.73,174.53Z"/><path class="cls-14" d="M405.42,166.81c-3.16-6.62-7-13.27-12.9-17.78-1-.78-2.64.52-2.21,1.7,2.39,6.48,5.76,12.54,7.61,19.24.95,3.41,1.53,6.92,2.14,10.4.56,3.23,1.05,6.64,3.46,9a3.57,3.57,0,0,0,5.53-.71C413,182.59,408.18,172.58,405.42,166.81Z"/></g><ellipse class="cls-6" cx="370.22" cy="151.31" rx="43.57" ry="27.34" transform="translate(-13.38 38.15) rotate(-5.79)"/><path class="cls-17" d="M395.79,220.22c-.49,5.4-4.55,7.12-10,7.66-2.81.28-6.3.77-9.1.33-3.32-.52-5.16-5.13-5.78-8.5-1.49-8.09-2.33-14,.81-19.09,2.79-4.56,9.52-6,14.68-5.3,3.21.44,5.92,3.78,6.76,6.84C394.32,206.23,396.14,216.46,395.79,220.22Zm-18.66-4.43c.7,4.86,3.39,7.11,6.78,6.67,3.68-.48,5.24-4.06,4.78-8.05A109.15,109.15,0,0,1,377.13,215.79Zm-.42-4.73c3.69-.48,7.69-1.16,11.38-1.63-.46-3.87-1.85-7-6.34-6.33C378.49,203.58,376.5,205.14,376.71,211.06Z"/><path class="cls-18" d="M388.1,272.26c-2,.47-4,0-4.19-1.09-.42-2.63.9-2.86,3.11-3.36,1.61-.37,1.35-2.25,1-4-2.33.48-3.92-.17-4.23-1.5-.43-1.88.64-2.88,3.69-3.38-.19-1.37-.94-5,.87-5.43,2.44-.49,2.45,1,3.18,4.53l2.94-.37c-.53-3.6-.82-5.11.95-5.57s2.9,3.3,3.25,5.13c.21,1.13,4.19-2.06,4.92,1.18.37,1.66-.18,2.38-3.61,3.08-.95.14-.43,4.2.46,4,2.81-.53,3.57.82,3.66,1.85.11,1.19-.39,2.57-3.35,3.07.09,4.93.16,7.6-2,7.7-1.64.07-2.4-2.4-2.83-6.81-2.3-.28-3.22.27-3.55,3.67-.16,1.63-2.08,4.69-4.53,3.9S388.59,272.1,388.1,272.26Zm7.38-10c-1.27,0-2.69.15-3,.75s.13,2.77.39,3.91c.77-.09,2.41-.43,3.29-.54C396.11,265.66,395.56,262.91,395.48,262.22Z"/><path class="cls-19" d="M394,331.26c-4.47.77-13.43,2.37-14.73,2.54a3,3,0,0,1-3.34-2.56,3.13,3.13,0,0,1,2.45-3.29c4.66-1.1,8.9-1.67,13.57-2.77l1.64-.4c-.25-3.9-.49-7.77-.73-11.64-.05-.87-1.16-6,2.22-6.5,1.8-.28,3,3.18,3.35,4.68.75,3.58,1.14,5.86,1.85,9.45.13.7.29,1.39.48,2.28,1.53-.32,3-.63,4.45-.91,2-.4,4.72-.64,5.07,2,.27,2.12-1.56,3.89-3.65,4.6a30.3,30.3,0,0,1-4.87,1.17c.11,2.48.25,4.57.31,7.22.06,2.9.64,7.26-3.07,7.53-3.43.26-4-4.51-4.34-7.24-.13-1-.19-2.07-.3-3.1S394.1,332.49,394,331.26Z"/><path class="cls-20" d="M376.27,267.92c-.31-1.16-1-3.9,1.29-4.4,2.62-.58,3.11,1.39,3.48,3.49.41,2.34-.09,4.5,1.1,8.62.78,2.7,2.35,3.28,4.65,3.71,6.19,1.17,8.22.86,12.38,0,5.45-1.12,9.14-3.57,9.78-2.83,1.69,1.94.57,6.48-12.75,8.61-5.69.19-11-.55-13.51-2.14-2.11-1.33-3.41-.58-5,.9a2.7,2.7,0,0,1-4.36-1c-.73-3.11,2.66-2.61,3.72-6.05C378.13,273.16,377.33,272,376.27,267.92Z"/><path class="cls-21" d="M383.68,317.84a3.45,3.45,0,1,1-3,4A3.51,3.51,0,0,1,383.68,317.84Z"/><path class="cls-22" d="M391,312.42a3.41,3.41,0,1,1-4-3A3.57,3.57,0,0,1,391,312.42Z"/><path class="cls-23" d="M397.94,259.12l.16,1.79"/><circle class="cls-24" cx="376.36" cy="259.12" r="3.14" transform="translate(-12.18 18.65) rotate(-2.79)"/><path class="cls-25" d="M414.06,375c-.84-1.48-3.2-2.78-4.69-3.64-1.66-1-7.76-5-10.49-6.41l.43-.66c1.32-2.19-1.87-4.59-3.93-2.74-2.43,2.19-4.59,4.51-6.8,6.86s-4.7,4.48-6.22,7.06c-1.72,2.91,1.58,5.25,4.08,3.12a50,50,0,0,0,6.15-6.69c1.15-1.37,2.69-2.92,3.72-4.32,1.75,1.42,9.59,6.88,12.5,8.58,1,.58,2.81,1.61,3.9,1.44A1.67,1.67,0,0,0,414.06,375Z"/><path class="cls-26" d="M410.23,392.82l-.29,0a2.61,2.61,0,0,0,.32-1.25,3,3,0,0,0-.22-1.08,2.78,2.78,0,0,0-.58-.93,2.9,2.9,0,0,0-2.06-.91,3,3,0,0,0-.9.09,4.2,4.2,0,0,0-.82.3,3.07,3.07,0,0,0-1.2,1.11,3.38,3.38,0,0,0-.34.72,4.1,4.1,0,0,0-.16.79,3.84,3.84,0,0,0,.1,1.35c0,.1.06.21.1.31l-2.17.24c0-1.31-.5-4.93-.71-6.25,1.54-.15,3.8-.44,4.94-.57,2.87-.31,2.27-4.4-.92-4.13-1.73.14-3.36.3-4.95.5-.11-.42-.38-2.12-.53-2.53,1.93-.14,3.83-.45,5.49-.6,3.79-.34,3.52-4.58-.34-4.2-5.29.53-10.67.93-16.17,1.71-1.64.23-1.67,2.95-.11,3.42,2,.61,4,.3,6.46.13.11.89.32,2.58.31,2.58-2.34.24-8.06.42-8.35,2.25a2.46,2.46,0,0,0,2.64,2.47c2.59-.12,4-.23,6-.37.09,1.54.52,4.21.6,6-.52,0-1.13.08-1.78.11a2.59,2.59,0,0,0-.1-.62,4.66,4.66,0,0,0-.35-.87,4.2,4.2,0,0,0-.78-1.06,6.76,6.76,0,0,0-.72-.58,1.87,1.87,0,0,0-.38-.24,5,5,0,0,0-1.79-.51,4,4,0,0,0-1.34.09,2.5,2.5,0,0,0-1.16.55,2.22,2.22,0,0,0-.74,1.43,2.56,2.56,0,0,0,.17,1.25,4.7,4.7,0,0,0,.33.77,1.74,1.74,0,0,0,.2.3,8,8,0,0,0-2.28.64c-1.43.73-.81,2.73,1,3.07a49.58,49.58,0,0,0,10.27.43c3.88-.07,8.75-.6,12.51-.8C416.29,397.62,416,392.45,410.23,392.82Z"/><circle class="cls-27" cx="382.24" cy="212.67" r="23.97"/><circle class="cls-27" cx="388.89" cy="268.68" r="23.97"/><circle class="cls-27" cx="394.7" cy="324.72" r="23.97"/><circle class="cls-27" cx="398.86" cy="380.72" r="23.97"/></svg>