<?xml version="1.0" standalone="no"?><!DOCTYPE svg PUBLIC "-//W3C//DTD SVG 1.1//EN" "http://www.w3.org/Graphics/SVG/1.1/DTD/svg11.dtd"><svg t="1625821789973" class="icon" viewBox="0 0 1024 1024" version="1.1" xmlns="http://www.w3.org/2000/svg" p-id="4855" xmlns:xlink="http://www.w3.org/1999/xlink" width="200" height="200"><defs><style type="text/css"></style></defs><path d="M958.976 27.136h-893.44c-36.352 0-65.536 29.696-65.536 65.536V793.6c0 36.352 29.696 65.536 65.536 65.536h893.44c36.352 0 65.536-29.696 65.536-65.536V92.16c0-35.84-29.696-65.024-65.536-65.024z m0 742.4h-0.512c0 12.288-10.24 22.528-22.528 22.528h-845.824c-12.288 0-22.528-10.24-22.528-23.04V116.224c0-12.288 10.24-22.528 22.528-22.528h846.336c12.288 0 22.528 10.24 22.528 22.528v653.312zM880.128 963.584c0 18.432-14.848 33.28-33.28 33.28h-669.184c-18.432 0-33.28-14.848-33.28-33.28s14.848-33.28 33.28-33.28h669.184c18.432 0.512 33.28 15.36 33.28 33.28z" p-id="4856" fill="#13227a"></path><path d="M206.848 581.12c-13.824-12.288-15.36-33.28-3.072-47.104l166.912-190.464c17.92-19.968 48.128-23.04 69.12-6.656l143.36 111.104c13.824 10.752 33.28 8.704 45.056-3.584l143.36-155.648c12.288-13.312 33.28-14.336 47.104-2.048 13.312 12.288 14.336 33.28 2.048 47.104l-174.08 188.928c-17.92 19.456-47.616 22.016-68.608 5.632l-142.336-110.592c-13.824-10.752-33.792-8.704-45.568 4.608l-136.192 155.648c-12.288 13.824-33.28 15.36-47.104 3.072z" p-id="4857" fill="#13227a"></path></svg>