<svg t="1629003117770" class="icon" viewBox="0 0 1024 1024" version="1.1" xmlns="http://www.w3.org/2000/svg" p-id="4020" width="200" height="200"><path d="M800 320 224 320c-17.664 0-32-14.336-32-32s14.336-32 32-32l576 0c17.696 0 32 14.336 32 32S817.696 320 800 320z" p-id="4021" fill="#1296db"></path><path d="M800 544 224 544c-17.664 0-32-14.336-32-32s14.336-32 32-32l576 0c17.696 0 32 14.336 32 32S817.696 544 800 544z" p-id="4022" fill="#1296db"></path><path d="M800 768 224 768c-17.664 0-32-14.336-32-32s14.336-32 32-32l576 0c17.696 0 32 14.336 32 32S817.696 768 800 768z" p-id="4023" fill="#1296db"></path></svg>