<svg t="1628575708733" class="icon" viewBox="0 0 1024 1024" version="1.1" xmlns="http://www.w3.org/2000/svg" p-id="5172" width="200" height="200"><path d="M0 0m102.4 0l819.0976 0q102.4 0 102.4 102.4l0 819.0976q0 102.4-102.4 102.4l-819.0976 0q-102.4 0-102.4-102.4l0-819.0976q0-102.4 102.4-102.4Z" fill="#000000" opacity=".6" p-id="5173"></path><path d="M318.9248 290.3808a30.976 30.976 0 0 0-2.2272 39.9104l2.2528 2.6112 172.2368 178.7904-172.1856 179.3536-2.2272 2.6112a31.0016 31.0016 0 0 0 0 37.248l2.304 2.6624c10.496 10.9056 26.9824 11.648 38.272 2.304l2.5088-2.3296 192.6912-200.6528c10.496-11.008 11.2128-28.16 2.2016-39.9104l-2.2528-2.6112-192.6656-200.0128-2.5344-2.3296a28.1088 28.1088 0 0 0-38.3744 2.3552z m152.448 0a30.976 30.976 0 0 0-2.2272 39.9104l2.2272 2.6112 172.2624 178.7904-172.1856 179.3536-2.2528 2.6112a31.0016 31.0016 0 0 0 0 37.248l2.304 2.6624c10.496 10.9056 27.008 11.648 38.2976 2.304l2.5088-2.3296 192.6656-200.6528c10.496-11.008 11.2128-28.16 2.2272-39.9104l-2.2528-2.6112-192.6912-200.0128-2.5088-2.3296a28.1088 28.1088 0 0 0-38.4 2.3552z" fill="#FFFFFF" p-id="5174"></path></svg>