<svg t="1628575616436" class="icon" viewBox="0 0 1024 1024" version="1.1" xmlns="http://www.w3.org/2000/svg" p-id="4360" width="200" height="200"><path d="M0 0m102.4 0l819.0976 0q102.4 0 102.4 102.4l0 819.0976q0 102.4-102.4 102.4l-819.0976 0q-102.4 0-102.4-102.4l0-819.0976q0-102.4 102.4-102.4Z" fill="#000000" opacity=".6" p-id="4361"></path><path d="M683.0848 290.3808a30.976 30.976 0 0 1 2.2272 39.9104l-2.2528 2.6112-172.2624 178.7904 172.2112 179.3536 2.2272 2.6112c8.2944 10.88 8.2944 26.368 0 37.248l-2.304 2.6624a28.032 28.032 0 0 1-38.272 2.304l-2.5344-2.3296-192.6656-200.6528a30.9248 30.9248 0 0 1-2.2016-39.9104l2.2272-2.6112 192.6912-200.0128 2.5344-2.3296a28.1088 28.1088 0 0 1 38.3744 2.3552z m-152.448 0a30.976 30.976 0 0 1 2.2272 39.9104l-2.2528 2.6112L358.4 511.6928l172.1856 179.3536 2.2528 2.6112c8.2688 10.88 8.2688 26.368 0 37.248l-2.304 2.6624a28.032 28.032 0 0 1-38.2976 2.304l-2.5088-2.3296-192.6912-200.6528a30.9248 30.9248 0 0 1-2.2016-39.9104l2.2528-2.6112 192.6656-200.0128 2.5344-2.3296a28.1088 28.1088 0 0 1 38.4 2.3552z" fill="#FFFFFF" p-id="4362"></path></svg>