<svg t="1627974693546" class="icon" viewBox="0 0 1024 1024" version="1.1" xmlns="http://www.w3.org/2000/svg" p-id="9156" width="200" height="200"><path d="M841.7 410.5h-77.3v-47.3c0-138.8-112.9-251.8-251.7-251.8-138.8 0-251.8 112.9-251.8 251.8v47.3h-77.3c-8.6 0-15.5 7-15.5 15.5v426.6c0 8.6 6.9 15.5 15.5 15.5h658.2c8.6 0 15.5-7 15.5-15.5V426.1c-0.1-8.6-7.1-15.6-15.6-15.6zM544.1 661.4v65.4c0 8.7-7.1 15.7-15.7 15.7h-31.2c-8.7 0-15.7-7-15.7-15.7v-65.4c-16.1-10.3-26.8-28.3-26.8-48.8 0-32.1 26-58.1 58.1-58.1s58.1 26 58.1 58.1c0 20.5-10.7 38.5-26.8 48.8z m126.2-250.9H354.9v-47.3c0-87 70.8-157.7 157.7-157.7 87 0 157.7 70.8 157.7 157.7v47.3z" fill="#231815" p-id="9157"></path></svg>