<svg t="1628492022652" class="icon" viewBox="0 0 1040 1024" version="1.1" xmlns="http://www.w3.org/2000/svg" p-id="13217" width="200" height="200"><path d="M989.406523 841.736192C965.129846 841.736192 945.427039 822.055385 945.427039 797.756731 945.427039 773.480054 965.129846 753.799247 989.406523 753.799247 1013.705192 753.799247 1033.386008 773.480054 1033.386008 797.756731 1033.386008 822.055385 1013.705192 841.736192 989.406523 841.736192L989.406523 841.736192ZM791.520823 694.492885 791.520823 598.155815C844.054315 567.722008 879.479792 511.032454 879.479792 445.986792 879.479792 348.8361 800.734523 270.068838 703.583839 270.068838 668.400246 270.068838 635.789454 280.6679 608.280285 298.4576 581.188923 181.538131 476.935546 94.194869 351.791915 94.194869 206.065885 94.194869 87.936985 212.301785 87.936985 358.027815 87.936985 436.069415 122.021085 505.9968 175.895962 554.286277L175.895962 662.365869C70.850954 601.520246 0 488.163115 0 358.027815 0 163.748431 157.490546 6.2359 351.791915 6.2359 483.818338 6.2359 598.692762 79.065931 658.878685 186.639754 673.457885 184.132923 688.256985 182.131854 703.583839 182.131854 849.287877 182.131854 967.416777 300.260762 967.416777 445.986792 967.416777 560.795238 893.927054 658.231792 791.520823 694.492885L791.520823 694.492885ZM65.947238 863.725962C90.245908 863.725962 109.926731 883.406769 109.926731 907.705423 109.926731 931.9821 90.245908 951.684962 65.947238 951.684962 41.670561 951.684962 21.989746 931.9821 21.989746 907.705423 21.989746 883.406769 41.670561 863.725962 65.947238 863.725962L65.947238 863.725962ZM285.822685 489.944285C285.822685 465.667608 283.535754 445.986792 307.812431 445.986792 332.089108 445.986792 329.802177 465.667608 329.802177 489.944285L329.802177 1017.632138 285.822685 1017.632138C285.822685 969.056807 246.439054 929.695193 197.8857 929.695193L197.8857 885.715732C231.815877 885.715732 262.447592 898.887522 285.822685 919.953723L285.822685 489.944285 285.822685 489.944285ZM483.708392 797.756731C459.431715 797.756731 461.718646 778.075924 461.718646 753.799247L461.718646 577.903262C461.718646 553.604592 459.431715 533.923777 483.708392 533.923777 507.985069 533.923777 505.698131 553.604592 505.698131 577.903262L505.698131 753.799247C505.698131 778.075924 507.985069 797.756731 483.708392 797.756731L483.708392 797.756731ZM483.708392 885.715732C507.985069 885.715732 527.687877 905.396539 527.687877 929.695193 527.687877 953.97187 507.985069 973.674654 483.708392 973.674654 459.431715 973.674654 439.7289 953.97187 439.7289 929.695193 439.7289 905.396539 459.431715 885.715732 483.708392 885.715732L483.708392 885.715732ZM659.604346 445.986792C683.881023 445.986792 681.594092 465.667608 681.594092 489.944285L681.594092 886.111468C721.681392 832.566508 785.451654 797.756731 857.490054 797.756731L857.490054 841.736192C760.339361 841.736192 681.594092 920.481477 681.594092 1017.632138L637.614608 1017.632138C637.614608 1011.650954 638.0544 1005.779653 638.516185 999.908431 637.328738 992.56383 637.614608 983.548062 637.614608 973.674654L637.614608 489.944285C637.614608 465.667608 635.327669 445.986792 659.604346 445.986792L659.604346 445.986792Z" p-id="13218"></path></svg>