<svg t="1628491889538" class="icon" viewBox="0 0 1024 1024" version="1.1" xmlns="http://www.w3.org/2000/svg" p-id="8523" width="200" height="200"><path d="M243.776 664.256c-68.608 0-124.416-55.52-124.416-123.808 0-67.904 55.232-123.232 123.328-123.808 9.12-118.56 108.96-212.256 230.368-212.256 81.92 0 156.576 42.56 198.24 112.064a176.384 176.384 0 0 1 45.248-5.952c98.016 0 177.728 79.328 177.728 176.864s-79.712 176.864-177.728 176.864H243.776z" fill="#C0DCFA" p-id="8524"></path><path d="M354.432 794.368a17.632 17.632 0 0 0 24.896 24.928l54.144-54.144a17.632 17.632 0 0 0-24.928-24.928l-54.144 54.144zM571.584 794.368a17.632 17.632 0 0 0 24.896 24.928l54.144-54.144a17.632 17.632 0 0 0-24.928-24.928l-54.144 54.144z" fill="#43A3FB" p-id="8525"></path></svg>