<svg t="1628491763005" class="icon" viewBox="0 0 1024 1024" version="1.1" xmlns="http://www.w3.org/2000/svg" p-id="6188" width="200" height="200"><path d="M595.26633 575.309604a23.229203 23.229203 0 0 0-25.674382-9.780717l-94.139402 24.451792 90.471633-101.47494a23.80382 23.80382 0 0 0-35.4551-31.78733l-141.820397 158.936653a23.229203 23.229203 0 0 0 23.229203 37.900278l99.02976-24.451792-122.258963 147.933346a23.877176 23.877176 0 0 0 36.677689 30.56474l167.49478-204.172469a23.229203 23.229203 0 0 0 1.222589-28.119561" fill="#FFD62D" p-id="6189"></path><path d="M722.415652 377.250083m-180.943266 0a180.943266 180.943266 0 1 0 361.886532 0 180.943266 180.943266 0 1 0-361.886532 0Z" fill="#91E0FC" p-id="6190"></path><path d="M316.515893 197.529406v-8.558127a188.278804 188.278804 0 1 1 347.215457 100.25235 173.607728 173.607728 0 0 1-251.853465 231.069441 180.943266 180.943266 0 1 1-110.033068-323.986253z" fill="#AAE9FF" p-id="6191"></path><path d="M406.987526 1000.770797v-96.584581a23.229203 23.229203 0 0 1 46.458406 0v96.584581a23.229203 23.229203 0 1 1-46.458406 0z" fill="#91E0FC" p-id="6192"></path><path d="M562.25641 867.508527a23.229203 23.229203 0 0 1-23.229203-23.229203v-83.136096a23.229203 23.229203 0 0 1 23.229203-24.451792 23.229203 23.229203 0 0 1 24.451793 23.229203v83.136095a23.229203 23.229203 0 0 1-23.229204 24.451793" fill="#AAE9FF" p-id="6193"></path></svg>