<svg t="1628491996636" class="icon" viewBox="0 0 1024 1024" version="1.1" xmlns="http://www.w3.org/2000/svg" p-id="12127" width="200" height="200"><path d="M265.405893 159.516839c-114.734142 0-207.72825 96.454766-207.72825 215.44818 0 118.993414 92.994107 215.44818 207.72825 215.44818h404.808318c66.551127 0 120.413172-53.95078 120.413172-120.413171 0-66.551127-53.95078-120.413172-120.413172-120.413172-4.170537 0-8.341075 0.17747-12.422877 0.621144-25.378163-63.977816-86.871404-109.143847-158.657885-109.143847-22.006239 0-43.036395 4.259272-62.380589 11.979202-37.62357-56.52409-100.359099-93.526516-171.346967-93.526516z" fill="#2381BF" p-id="12128"></path><path d="M670.125477 608.160166H265.405893c-60.339688 0-117.041248-24.313345-159.633969-68.503293-42.503986-44.012478-65.841248-102.488735-65.841248-164.691854s23.337262-120.679376 65.841248-164.691854c42.592721-44.189948 99.294281-68.503293 159.545234-68.503293 69.834315 0 135.320624 33.364298 178.002079 90.065858 17.924437-5.679029 36.647487-8.518544 55.725477-8.518545 38.422184 0 75.42461 11.712998 106.925477 33.807973 27.241594 19.07799 48.804159 44.722357 63.090468 74.714731h1.153552c76.223224 0 138.160139 62.02565 138.160139 138.160139 0 76.134489-62.02565 138.160139-138.248873 138.160138z m-170.282149-35.493934h170.282149c56.612825 0 102.666205-46.05338 102.666204-102.666204s-46.05338-102.666205-102.666204-102.666205c-3.549393 0-7.187522 0.17747-10.648181 0.532409l-13.39896 1.331023-4.969151-12.511612c-23.603466-59.45234-79.417678-97.874523-142.153206-97.874523-19.255459 0-38.067244 3.638128-55.814211 10.736915l-13.39896 5.32409-7.986136-12.067938c-35.493934-53.595841-93.970191-85.540381-156.439514-85.540381-104.707106 0-189.892548 88.646101-189.892548 197.701213s85.185442 197.701213 189.892548 197.701213h234.52617z" fill="#FFFFFF" p-id="12129"></path><path d="M758.594107 680.390322c114.734142 0 207.72825-96.454766 207.72825-215.44818 0-118.993414-92.994107-215.44818-207.72825-215.44818-71.076603 0-133.812132 37.002426-171.258232 93.526516-19.344194-7.719931-40.37435-11.979203-62.380589-11.979202-71.786482 0-133.279723 45.166031-158.657886 109.143847-4.081802-0.443674-8.25234-0.621144-12.422877-0.621144-66.551127 0-120.413172 53.95078-120.413171 120.413172 0 66.551127 53.95078 120.413172 120.413171 120.413171h404.719584z" fill="#2381BF" p-id="12130"></path><path d="M758.594107 698.137289H353.874523c-76.223224 0-138.248873-61.936915-138.248873-138.160138 0-76.578163 62.646794-138.781282 139.313691-138.160139 14.286308-29.992374 35.848873-55.636742 63.090468-74.714731 31.500867-22.094974 68.503293-33.807972 106.925477-33.807973 19.07799 0 37.712305 2.839515 55.725477 8.518545 42.592721-56.612825 108.167764-90.065858 178.002079-90.065858 60.339688 0 117.041248 24.313345 159.633969 68.503293 42.415251 44.012478 65.841248 102.488735 65.841248 164.691854s-23.337262 120.679376-65.841248 164.691855c-42.681456 44.189948-99.383016 68.503293-159.722704 68.503292z m-232.751473-35.493934h232.751473c104.707106 0 189.981282-88.646101 189.981283-197.701213s-85.185442-197.701213-189.981283-197.701213c-62.469324 0-120.945581 31.944541-156.439514 85.540381l-7.986135 12.067938-13.398961-5.32409c-17.746967-7.098787-36.558752-10.736915-55.814211-10.736915-62.735529 0-118.54974 38.422184-142.153206 97.874523l-4.969151 12.511612-13.39896-1.331023c-3.549393-0.354939-7.098787-0.532409-10.64818-0.532409-56.52409 0-102.666205 46.05338-102.666205 102.666205s46.142114 102.666205 102.754939 102.666204h171.968111z" fill="#FFFFFF" p-id="12131"></path><path d="M575.977816 918.820825l-31.412131-31.412132 79.772617-79.683882 31.412131 31.412132-79.772617 79.683882z m-117.218717 0l-31.412132-31.412132 79.772617-79.683882 31.412132 31.412132-79.772617 79.683882z m-234.614905 0l-31.412132-31.412132 79.772617-79.683882 31.412132 31.412132-79.772617 79.683882z m117.307452 0l-31.412131-31.412132 79.683882-79.683882 31.412132 31.412132-79.683883 79.683882z m229.02461-111.983362l-31.412131-31.412132 79.772617-79.772617 31.412131 31.412132-79.772617 79.772617z m117.307453 0l-31.412132-31.412132 79.683882-79.772617 31.412132 31.412132-79.683882 79.772617z m-234.614905 0l-31.412132-31.412132 79.683883-79.772617 31.412131 31.412132-79.683882 79.772617z m-117.307452 0l-31.412132-31.412132 79.683882-79.772617 31.412132 31.412132-79.683882 79.772617z" fill="#2381BF" p-id="12132"></path></svg>