<svg t="1628491433930" class="icon" viewBox="0 0 1024 1024" version="1.1" xmlns="http://www.w3.org/2000/svg" p-id="5252" width="200" height="200"><path d="M875.257416 284.845397a17.727679 17.727679 0 0 1-1.023981 35.455358l-1.023982-0.032-58.49494-3.391938a17.727679 17.727679 0 1 1 2.015964-35.423358l58.49494 3.391938z m-21.311614-103.070132l-52.351051 26.271524a17.727679 17.727679 0 1 1-15.903712-31.711425l52.383051-26.271524a17.759678 17.759678 0 0 1 15.871712 31.711425z m-90.974351-134.941554a17.759678 17.759678 0 0 1 5.087908 24.575555L735.899942 120.336379a17.791678 17.791678 0 0 1-29.663463-19.487647l32.159418-48.927113a17.791678 17.791678 0 0 1 24.575554-5.087908z m-146.685341 47.135146a17.727679 17.727679 0 0 1-16.671698-18.75166l3.391939-58.49494A17.983674 17.983674 0 0 1 621.726011 0.01856c9.759823 0.57599 17.247687 8.959838 16.671698 18.75166l-3.391938 58.49494a17.759678 17.759678 0 0 1-17.69568 16.703697l-1.055981-0.032z m-105.95008 22.143598a17.759678 17.759678 0 0 1-15.871712-9.759823l-26.303523-52.351051a17.759678 17.759678 0 0 1 31.711425-15.903712l26.303523 52.319052a17.791678 17.791678 0 0 1-15.839713 25.727534z m-71.870697 40.031275a17.759678 17.759678 0 0 1-19.487647 29.663462L370.050573 153.647775a17.759678 17.759678 0 0 1 19.455647-29.663462l48.959113 32.159417z m36.447339 58.622937a150.301276 150.301276 0 0 1 138.781485-76.350616 147.709323 147.709323 0 0 1 102.494142 49.631101 147.581325 147.581325 0 0 1 37.407322 107.58205 147.86932 147.86932 0 0 1-7.871857 39.935276H672.637088c3.359939-9.727824-197.724416-120.765811-197.724416-120.765811z" fill="#FF9900" p-id="5253"></path><path d="M243.780861 664.26252c-68.606757 0-124.413745-55.518994-124.413745-123.805756 0-67.902769 55.230999-123.229766 123.325765-123.805756 9.119835-118.557851 108.958025-212.252153 230.363825-212.252153 81.918515 0 156.573162 42.559229 198.236407 112.061969a176.380803 176.380803 0 0 1 45.24718-5.951892c98.014223 0 177.724779 79.326562 177.724778 176.860794s-79.710555 176.860794-177.724778 176.860795H243.780861z" fill="#C0DCFA" p-id="5254"></path><path d="M408.577875 741.765116l-54.143019 54.143018a17.63168 17.63168 0 0 0 24.895549 24.927548l54.143018-54.143018a17.63168 17.63168 0 0 0-24.927548-24.927548zM625.725939 741.765116l-54.143019 54.143018a17.63168 17.63168 0 0 0 24.895549 24.927548l54.143018-54.143018a17.63168 17.63168 0 0 0-24.927548-24.927548z" fill="#43A3FB" p-id="5255"></path></svg>