<svg t="1628491970430" class="icon" viewBox="0 0 1024 1024" version="1.1" xmlns="http://www.w3.org/2000/svg" p-id="11233" width="200" height="200"><path d="M275.776 916.512a17.696 17.696 0 1 0 25.088 25.088l54.496-54.496a17.696 17.696 0 1 0-25.088-25.088l-54.496 54.496z m46.848-123.488l54.496-54.496a17.696 17.696 0 1 1 25.088 25.088l-54.496 54.496a17.696 17.696 0 1 1-25.088-25.088z m-51.936-54.496a17.696 17.696 0 1 1 25.088 25.088L241.28 818.112a17.696 17.696 0 1 1-25.088-25.088l54.496-54.496z m217.984 177.984l54.496-54.496a17.696 17.696 0 1 1 25.088 25.088l-54.496 54.496a17.696 17.696 0 1 1-25.088-25.088z m46.848-123.488l54.496-54.496a17.696 17.696 0 1 1 25.088 25.088l-54.496 54.496a17.696 17.696 0 1 1-25.088-25.088z m-49.408-54.496a17.696 17.696 0 1 1 25.088 25.088l-54.496 54.496a17.696 17.696 0 1 1-25.088-25.088l54.496-54.496z m215.392 0a17.696 17.696 0 1 1 25.088 25.088l-54.496 54.496a17.696 17.696 0 1 1-25.088-25.088l54.496-54.496z" fill="#43A3FB" p-id="11234"></path><path d="M243.776 664.256c-68.608 0-124.416-55.52-124.416-123.808 0-67.904 55.232-123.232 123.328-123.808 9.12-118.56 108.96-212.256 230.368-212.256 81.92 0 156.576 42.56 198.24 112.064a176.384 176.384 0 0 1 45.248-5.952c98.016 0 177.728 79.328 177.728 176.864s-79.712 176.864-177.728 176.864H243.776z" fill="#495060" p-id="11235"></path></svg>