<svg t="1628491185893" class="icon" viewBox="0 0 1024 1024" version="1.1" xmlns="http://www.w3.org/2000/svg" p-id="4368" width="200" height="200"><path d="M512 512m-324.949333 0a324.949333 324.949333 0 1 0 649.898666 0 324.949333 324.949333 0 1 0-649.898666 0Z" fill="#FFBF44" p-id="4369"></path><path d="M1000.96 535.04h-89.258667a23.04 23.04 0 0 1 0-46.08h89.258667a23.04 23.04 0 1 1 0 46.08zM858.197333 335.189333a23.04 23.04 0 0 1-11.52-42.666666l76.8-44.629334a23.04 23.04 0 0 1 23.04 39.936l-77.312 44.629334a23.210667 23.210667 0 0 1-11.008 2.730666zM711.850667 188.842667a22.698667 22.698667 0 0 1-11.52-3.072 23.04 23.04 0 0 1-8.533334-31.402667L736.512 76.8A23.04 23.04 0 0 1 776.533333 100.010667l-44.629333 77.312a22.954667 22.954667 0 0 1-20.053333 11.52zM512 135.338667a23.04 23.04 0 0 1-23.04-23.04V23.04a23.04 23.04 0 0 1 46.08 0v89.258667a23.04 23.04 0 0 1-23.04 23.04zM312.149333 188.842667a22.954667 22.954667 0 0 1-19.968-11.52L247.466667 100.010667A23.04 23.04 0 0 1 287.488 76.8l44.629333 77.312a23.04 23.04 0 0 1-8.533333 31.402667 22.698667 22.698667 0 0 1-11.434667 3.328zM165.802667 335.189333a23.04 23.04 0 0 1-11.434667-3.072L76.8 287.488A23.04 23.04 0 0 1 100.010667 247.466667l77.312 44.629333a23.04 23.04 0 0 1-11.52 42.666667zM112.298667 535.04H23.04a23.04 23.04 0 0 1 0-46.08h89.258667a23.04 23.04 0 0 1 0 46.08zM88.576 779.52a23.04 23.04 0 0 1-11.52-42.666667l77.312-44.629333a23.04 23.04 0 0 1 22.954667 39.936L100.010667 776.533333a23.04 23.04 0 0 1-11.434667 2.986667zM267.52 958.464A22.698667 22.698667 0 0 1 256 955.733333a23.04 23.04 0 0 1-8.533333-31.402666l44.629333-77.312a23.04 23.04 0 0 1 39.936 22.954666L287.488 947.2a22.954667 22.954667 0 0 1-19.968 11.264zM512 1024a23.04 23.04 0 0 1-23.04-23.04v-89.258667a23.04 23.04 0 0 1 46.08 0v89.258667A23.04 23.04 0 0 1 512 1024zM756.48 958.464a22.954667 22.954667 0 0 1-19.968-11.264l-44.629333-77.312a23.04 23.04 0 0 1 39.936-22.954667l44.714666 77.056a23.04 23.04 0 0 1-8.533333 31.744 22.698667 22.698667 0 0 1-11.52 2.730667zM935.424 779.52a23.552 23.552 0 0 1-11.52-3.072l-76.8-44.629333a23.04 23.04 0 0 1 22.954667-39.936l77.141333 44.629333a23.04 23.04 0 0 1-11.52 42.666667z" fill="#FFBF44" p-id="4370"></path></svg>