<svg t="1628491821945" class="icon" viewBox="0 0 1024 1024" version="1.1" xmlns="http://www.w3.org/2000/svg" p-id="6391" width="200" height="200"><path d="M190.171429 65.828571h321.828571l-131.657143 321.828572h204.8l-365.714286 585.142857 117.028572-453.485714H117.028571z" fill="#8a8a8a" p-id="6392"></path><path d="M775.314286 563.2m-146.285715 0a146.285714 146.285714 0 1 0 292.571429 0 146.285714 146.285714 0 1 0-292.571429 0Z" fill="#8a8a8a" p-id="6393"></path><path d="M175.542857 51.2h321.828572l-131.657143 321.828571h204.8l-365.714286 585.142858 117.028571-453.485715H102.4z" fill="#ff8800" p-id="6394"></path><path d="M760.685714 548.571429m-146.285714 0a146.285714 146.285714 0 1 0 292.571429 0 146.285714 146.285714 0 1 0-292.571429 0Z" fill="#1394e0" p-id="6395"></path></svg>