<svg t="1628491310306" class="icon" viewBox="0 0 1024 1024" version="1.1" xmlns="http://www.w3.org/2000/svg" p-id="2607" width="200" height="200"><path d="M691.2 358.4m-230.4 0a230.4 230.4 0 1 0 460.8 0 230.4 230.4 0 1 0-460.8 0Z" fill="#FFA800" opacity=".33" p-id="2608"></path><path d="M691.2 358.4m-179.2 0a179.2 179.2 0 1 0 358.4 0 179.2 179.2 0 1 0-358.4 0Z" fill="#FFA800" p-id="2609"></path><path d="M947.2 742.4a153.6 153.6 0 0 1-153.6 153.6H256a179.2 179.2 0 0 1-24.32-356.608 230.144 230.144 0 0 1 445.44-54.528A101.9136 101.9136 0 0 1 844.8 563.2a99.4304 99.4304 0 0 1-5.888 33.024A153.6 153.6 0 0 1 947.2 742.4z" fill="#80CEFF" p-id="2610"></path></svg>