<svg t="1629032080743" class="icon" viewBox="0 0 1024 1024" version="1.1" xmlns="http://www.w3.org/2000/svg" p-id="2032" width="200" height="200"><path d="M670.023548 368.251062c10.259668 0 20.38119 0.787946 30.53648 1.902326-27.361161-127.435391-163.538657-222.082004-319.066873-222.082004-173.813674 0-316.202639 118.450762-316.202639 268.934079 0 86.831624 47.341215 158.128437 126.509299 213.512838l-31.583323 95.101985 110.560048-55.386448c39.524179 7.748475 71.228251 15.809057 110.716614 15.809057 9.930163 0 19.771299-0.451278 29.473265-1.187035-6.123464-21.147646-9.771551-43.274596-9.771551-66.340941C401.265478 480.380862 519.85234 368.251062 670.023548 368.251062L670.023548 368.251062zM500.047272 282.537911c23.887037 0 39.591717 15.70468 39.591717 39.470967 0 23.679305-15.705704 39.542598-39.591717 39.542598-23.627117 0-47.410799-15.863293-47.410799-39.542598C452.636472 298.17403 476.366943 282.537911 500.047272 282.537911L500.047272 282.537911zM278.751167 361.551476c-23.731494 0-47.619554-15.863293-47.619554-39.542598 0-23.76731 23.88806-39.470967 47.619554-39.470967s39.488363 15.636119 39.488363 39.470967C318.23953 345.688183 302.482661 361.551476 278.751167 361.551476L278.751167 361.551476zM278.751167 361.551476" p-id="2033" fill="#1afa29"></path><path d="M958.709483 614.70822c0-126.403898-126.543068-229.42832-268.652669-229.42832-150.485363 0-268.915659 103.09503-268.915659 229.42832 0 126.753869 118.498858 229.462089 268.915659 229.462089 31.514761 0 63.272046-7.886621 94.89016-15.809057l86.690408 47.567365-23.76731-79.048357C911.351895 749.174748 958.709483 686.041872 958.709483 614.70822L958.709483 614.70822zM602.842473 575.132876c-15.70468 0-31.618115-15.633049-31.618115-31.618115 0-15.739473 15.914458-31.583323 31.618115-31.583323 24.010857 0 39.576367 15.84385 39.576367 31.583323C642.41884 559.499827 626.853329 575.132876 602.842473 575.132876L602.842473 575.132876zM776.78099 575.132876c-15.565511 0-31.445176-15.633049-31.445176-31.618115 0-15.739473 15.809057-31.583323 31.445176-31.583323 23.801079 0 39.576367 15.84385 39.576367 31.583323C816.356334 559.499827 800.581046 575.132876 776.78099 575.132876L776.78099 575.132876zM776.78099 575.132876" p-id="2034" fill="#1afa29"></path></svg>