<?xml version="1.0" standalone="no"?><!DOCTYPE svg PUBLIC "-//W3C//DTD SVG 1.1//EN" "http://www.w3.org/Graphics/SVG/1.1/DTD/svg11.dtd"><svg t="1625821725461" class="icon" viewBox="0 0 1037 1024" version="1.1" xmlns="http://www.w3.org/2000/svg" p-id="2099" xmlns:xlink="http://www.w3.org/1999/xlink" width="202.5390625" height="200"><defs><style type="text/css"></style></defs><path d="M604.502492 574.025861L342.492234 835.888175l-198.911796 35.136892a15.608177 15.608177 0 0 1-17.82735-17.975295l35.136892-198.911796 457.889186-458.111103 181.898144 181.898143-39.871126 39.871126M945.041855 51.625341a128.638012 128.638012 0 0 1 0 181.920336l-90.912085 90.912085L672.261215 142.589208l90.963866-90.963867a128.638012 128.638012 0 0 1 181.824171 0z" fill="#13227a" p-id="2100"></path><path d="M818.948494 294.558116l33.657444 33.583472 90.912086-90.912086a128.120205 128.120205 0 0 0 36.986202-104.227118zM259.347251 854.159359l81.665535-14.424619L603.023044 577.724482l156.229719-156.229719 39.945099-39.871127-33.657444-33.657444-506.193167 506.193167z" fill="#13227a" p-id="2101"></path><path d="M705.770714 174.131041L672.187243 140.547569l90.912085-90.986058a128.416095 128.416095 0 0 1 104.227119-36.986202zM146.169472 733.732283l14.424619-81.665534 262.010258-262.010258 156.229719-156.229719 39.945098-39.945099 33.583472 33.657444-506.193166 506.193166z" fill="#13227a" p-id="2102"></path><path d="M705.32688 473.275446l-40.684823 40.684823" fill="#13227a" p-id="2103"></path><path d="M664.642057 528.75475a14.794481 14.794481 0 0 1-10.430109-25.298563l40.684823-40.684822a14.794481 14.794481 0 0 1 20.860218 20.93419l-40.684823 40.684823a14.794481 14.794481 0 0 1-10.430109 4.364372z" fill="#13227a" p-id="2104"></path><path d="M140.029762 887.077079a30.180741 30.180741 0 0 1-21.451997-8.950661 30.476631 30.476631 0 0 1-8.506827-26.778011l35.950589-203.498086 3.328758-3.328758 468.615185-468.615184L821.093694 378.738713l-50.671098 50.301235a14.794481 14.794481 0 1 1-20.93419-20.860218l29.588962-29.588962-161.111898-160.816008-444.426208 444.426208-34.323196 194.251535a0.813696 0.813696 0 0 0 0 0.739724 0.665752 0.665752 0 0 0 0.739724 0l194.325507-34.249223 258.903417-258.903417A14.794481 14.794481 0 0 1 613.97096 585.343639L348.853861 850.682655l-203.498086 35.876617a25.964314 25.964314 0 0 1-5.326013 0.517807zM853.27169 346.190855L650.439356 143.432493l101.416167-101.416167a143.432493 143.432493 0 0 1 202.832334 202.832334zM692.307737 143.432493l160.963953 160.963953 80.481976-80.481977a113.843531 113.843531 0 1 0-160.963953-160.963952z" fill="#13227a" p-id="2105"></path><path d="M102.895615 1009.205519H47.490284A32.695803 32.695803 0 0 1 14.794481 976.435744v-6.805462a32.695803 32.695803 0 0 1 32.695803-32.695802h942.48241a32.621831 32.621831 0 0 1 32.62183 32.695802v6.805462a32.621831 32.621831 0 0 1-32.62183 32.695803H206.456982" fill="#13227a" p-id="2106"></path><path d="M989.972694 1024H206.456982a14.794481 14.794481 0 1 1 0-29.588962h783.515712a17.901322 17.901322 0 0 0 17.827349-17.901322v-6.805461a17.901322 17.901322 0 0 0-17.827349-17.901322H47.490284A17.901322 17.901322 0 0 0 29.588962 969.704255v6.731489a17.901322 17.901322 0 0 0 17.901322 17.901322h55.405331a14.794481 14.794481 0 0 1 0 29.588962H47.490284A47.564256 47.564256 0 0 1 0 976.435744v-6.805462a47.564256 47.564256 0 0 1 47.490284-47.490283h942.48241a47.564256 47.564256 0 0 1 47.416311 47.490283v6.805462a47.564256 47.564256 0 0 1-47.416311 47.564256z" fill="#13227a" p-id="2107"></path></svg>